<svg width="681" height="136" viewBox="0 0 681 136" fill="none" xmlns="http://www.w3.org/2000/svg">
<rect x="52.3076" y="30.8845" width="52.3077" height="20.9231" fill="#1B3DF1"/>
<rect y="57.0383" width="104.615" height="20.9231" fill="#1B3DF1"/>
<rect y="83.1921" width="52.3077" height="20.9231" fill="#1B3DF1"/>
<path d="M163.619 34.0615L190.191 112H173.034L167.803 96.0985H137.988L132.757 112H115.6L142.173 34.0615H163.619ZM142.591 81.9754H163.2L152.948 50.3815L142.591 81.9754ZM220.961 113.255C203.804 113.255 190.727 100.388 190.727 83.3354C190.727 66.3877 203.699 53.6246 220.961 53.6246C233.724 53.6246 244.186 60.6338 247.638 71.2L234.247 77.6862C232.469 71.6185 227.343 67.7477 220.961 67.7477C212.696 67.7477 206.943 74.2338 206.943 83.44C206.943 92.6462 212.696 99.1323 220.961 99.1323C227.447 99.1323 232.469 95.2615 234.247 89.1938L247.638 95.7846C244.395 105.932 233.933 113.255 220.961 113.255ZM278.208 53.6246C292.75 53.6246 302.688 62.0985 302.688 74.3385V112H288.042V106.769C283.753 111.268 278.522 113.255 271.932 113.255C258.959 113.255 250.799 105.932 250.799 96.4123C250.799 87.9385 257.495 82.3938 269.107 79.9877L286.996 76.2215V74.3385C286.996 70.0492 283.439 67.2246 278.208 67.2246C272.664 67.2246 268.061 70.4677 266.387 75.5938L252.892 69.1077C256.239 59.6923 266.073 53.6246 278.208 53.6246ZM274.338 101.748C281.452 101.748 286.996 96.6215 286.996 90.24V87.52L271.932 90.8677C268.688 91.6 267.015 93.5877 267.015 96.2031C267.015 99.6554 269.839 101.748 274.338 101.748ZM353.312 34.0615H369.004V112H354.358V106.56C350.278 110.954 344.001 113.255 336.992 113.255C320.358 113.255 307.909 100.074 307.909 83.44C307.909 66.7015 320.672 53.6246 336.887 53.6246C343.687 53.6246 349.441 55.8215 353.312 59.6923V34.0615ZM338.875 99.1323C347.349 99.1323 353.312 92.7508 353.312 83.44C353.312 74.2338 347.349 67.7477 338.875 67.7477C330.296 67.7477 324.124 74.3385 324.124 83.44C324.124 92.6462 330.296 99.1323 338.875 99.1323ZM433.583 81.7662C433.583 84.0677 433.374 86.2646 432.85 87.8338H392.678C393.62 95.0523 398.746 99.6554 406.487 99.6554C412.032 99.6554 416.112 97.2492 418.309 93.3785L430.863 99.3415C427.41 107.711 417.995 113.255 406.278 113.255C388.18 113.255 376.358 99.8646 376.358 83.3354C376.358 66.2831 388.912 53.6246 405.232 53.6246C421.238 53.6246 433.583 65.9692 433.583 81.7662ZM392.992 76.3262H416.949C416.321 70.2585 411.718 66.1785 405.232 66.1785C399.06 66.1785 394.561 69.7354 392.992 76.3262ZM503.9 53.6246C515.826 53.6246 524.195 62.0985 524.195 75.28V112H508.503V78.6277C508.503 71.6185 504.737 67.7477 499.192 67.7477C493.648 67.7477 489.881 71.6185 489.881 78.6277V112H474.189V78.6277C474.189 71.6185 470.423 67.7477 464.878 67.7477C459.334 67.7477 455.568 71.6185 455.568 78.6277V112H439.875V54.88H454.521V61.7846C457.241 56.3446 462.577 53.6246 469.481 53.6246C476.804 53.6246 482.872 56.6585 486.534 62.4123C489.777 57.1815 496.158 53.6246 503.9 53.6246ZM533.661 49.7538V34.0615H549.354V49.7538H533.661ZM533.661 112V54.88H549.354V112H533.661ZM564.314 112V68.48H554.584V54.88H564.314V53.2061C564.314 39.7108 572.683 31.9692 586.911 31.9692C588.689 31.9692 590.991 32.1785 592.455 32.4923V45.8831C591.095 45.6738 590.049 45.5692 589.003 45.5692C583.144 45.5692 580.006 48.1846 580.006 53.2061V54.88H592.351V68.48H580.006V112H564.314ZM637.238 54.88H653.976L629.182 118.277C627.09 123.717 622.278 135.329 606.899 135.329C603.552 135.329 600.309 134.806 597.902 133.551V120.683C599.89 121.311 602.715 121.729 605.016 121.729C611.293 121.729 613.072 118.277 614.432 115.243L615.896 112L593.509 54.88H610.247L623.742 91.9138L637.238 54.88Z" fill="#1C1C1C"/>
<path d="M656.601 112V96.3077H672.293V112H656.601Z" fill="#1B3DF1"/>
</svg>
